<svg xmlns="http://www.w3.org/2000/svg" viewBox="0 0 32 32">
  <!-- Shield body -->
  <path d="M16 2 L28 7 L28 18 C28 25 22 29 16 31 C10 29 4 25 4 18 L4 7 Z"
        fill="#0f172a"/>
  <!-- Shield border (blue glow) -->
  <path d="M16 2 L28 7 L28 18 C28 25 22 29 16 31 C10 29 4 25 4 18 L4 7 Z"
        fill="none" stroke="#3b82f6" stroke-width="1.5"/>
  <!-- Inner shield highlight -->
  <path d="M16 5 L25.5 9 L25.5 18 C25.5 23.5 21 27 16 28.5 C11 27 6.5 23.5 6.5 18 L6.5 9 Z"
        fill="none" stroke="#1e40af" stroke-width="0.6" opacity="0.6"/>
  <!-- Checkmark (security confirmed) -->
  <path d="M10.5 16.5 L14 20 L21.5 12"
        stroke="#60a5fa" stroke-width="2.2" fill="none"
        stroke-linecap="round" stroke-linejoin="round"/>
</svg>
